<?xml version="1.0" encoding="UTF-8" standalone="no"?>
<svg
   xmlns:dc="http://purl.org/dc/elements/1.1/"
   xmlns:cc="http://creativecommons.org/ns#"
   xmlns:rdf="http://www.w3.org/1999/02/22-rdf-syntax-ns#"
   xmlns:svg="http://www.w3.org/2000/svg"
   xmlns="http://www.w3.org/2000/svg"
   xmlns:sodipodi="http://sodipodi.sourceforge.net/DTD/sodipodi-0.dtd"
   xmlns:inkscape="http://www.inkscape.org/namespaces/inkscape"
   enable-background="new 0 0 64 64"
   version="1.1"
   viewBox="0 0 64 64"
   xml:space="preserve"
   id="svg2"
   inkscape:version="0.91 r13725"
   sodipodi:docname="unsafe.svg"
   inkscape:export-filename="/home/awendelk/git/leaks/static/unsafe.svg.png"
   inkscape:export-xdpi="90"
   inkscape:export-ydpi="90"><metadata
     id="metadata21"><rdf:RDF><cc:Work
         rdf:about=""><dc:format>image/svg+xml</dc:format><dc:type
           rdf:resource="http://purl.org/dc/dcmitype/StillImage" /></cc:Work></rdf:RDF></metadata><defs
     id="defs19" /><sodipodi:namedview
     pagecolor="#ffffff"
     bordercolor="#666666"
     borderopacity="1"
     objecttolerance="10"
     gridtolerance="10"
     guidetolerance="10"
     inkscape:pageopacity="0"
     inkscape:pageshadow="2"
     inkscape:window-width="1920"
     inkscape:window-height="1031"
     id="namedview17"
     showgrid="false"
     inkscape:zoom="3.6875"
     inkscape:cx="67.661017"
     inkscape:cy="37.617656"
     inkscape:window-x="0"
     inkscape:window-y="25"
     inkscape:window-maximized="1"
     inkscape:current-layer="protection" /><g
     id="row_4" /><g
     id="row_3" /><g
     id="row_2" /><g
     id="row_1"><g
       id="protection"><path
         d="M55.7,9.3C50.4,4.2,43.1,2,32,2S13.6,4.2,8.3,9.3L8,9.6v20.6V32c0,13.7,9.5,25.9,23.7,30.3l0.3,0.1 l0.3-0.1C46.5,57.9,56,45.7,56,32V9.6L55.7,9.3z"
         fill="#8b2905"
         id="path9" /><path
         d="M49.8,12.5C45.9,9.5,40.2,8.2,32,8.2v47.8l0.2-0.1C43,51.9,50,42.5,50,32V12.6L49.8,12.5z"
         fill="#f8794c"
         id="path11" /><path
         d="M14.2,12.5L14,12.6V32c0,10.5,7,19.9,17.8,23.9l0.2,0.1V8.2C23.8,8.2,18.1,9.5,14.2,12.5z"
         id="path13"
         fill="#f8794c" /><text
         xml:space="preserve"
         style="font-style:normal;font-variant:normal;font-weight:bold;font-stretch:normal;font-size:32.15729904px;line-height:633.00004005%;font-family:sans-serif;-inkscape-font-specification:'sans-serif Bold';letter-spacing:0px;word-spacing:0px;fill:#000000;fill-opacity:1;stroke:none;stroke-width:1px;stroke-linecap:butt;stroke-linejoin:miter;stroke-opacity:1"
         x="35.418537"
         y="41.130886"
         id="text3349"
         sodipodi:linespacing="633.00004%"
         transform="scale(0.89697329,1.1148604)"><tspan
           sodipodi:role="line"
           x="36.777184"
           y="41.130886"
           style="font-style:normal;font-variant:normal;font-weight:normal;font-stretch:normal;font-size:38.18679047px;line-height:633.00004005%;font-family:'DejaVu Sans Mono';-inkscape-font-specification:'DejaVu Sans Mono';text-align:center;letter-spacing:2.71729088px;text-anchor:middle;fill:#ffffff"
           id="tspan3354">❌</tspan></text>
</g></g></svg>